<svg version="1.1" xmlns="http://www.w3.org/2000/svg" xmlns:xlink="http://www.w3.org/1999/xlink" width="78.16854" height="40.25" viewBox="0,0,78.16854,40.25"><g transform="translate(-219.875,-159.875)"><g data-paper-data="{&quot;isPaintingLayer&quot;:true}" fill-rule="nonzero" stroke-linecap="butt" stroke-linejoin="miter" stroke-miterlimit="10" stroke-dasharray="" stroke-dashoffset="0" style="mix-blend-mode: normal"><path d="M239.01749,194.04988v-28.09976c0,0 57.02605,5.35363 57.02605,8.87725c0,2.16397 0,5.86985 0,9.45369c0,5.00333 -57.02605,9.76882 -57.02605,9.76882z" fill="#b7c352" stroke="#484848" stroke-width="4"/><path d="M221.875,198.125v-36.25h36.25v36.25z" fill="#ceda5c" stroke="#484848" stroke-width="4"/><path d="M273.57505,188.68779c1.25,0 1.25,1.25 1.25,1.25l-0.02977,0.77458c-0.64468,2.57907 -4.34094,6.39745 -6.54738,2.44052c-0.5517,-0.98939 -0.08926,-3.67129 0.05221,-4.80303c-0.00819,-4.85979 0.3332,-9.66332 0.3332,-14.5215c0,-1.1951 0.56089,-4.16056 -0.03786,-5.23127c-0.83676,-1.49631 -1.97692,1.00742 -2.00056,1.50976c0,0 -0.13804,1.24235 -1.38039,1.10432c-1.24235,-0.13804 -1.10432,-1.38039 -1.10432,-1.38039c0.6572,-4.43581 6.19331,-5.47013 7.01705,-0.48855c1.00818,6.09697 -0.32257,13.00286 -0.33195,19.16299c-0.14433,1.1546 -0.3067,2.42446 -0.2834,3.5873c0.0237,1.18302 1.82309,-1.81148 1.84294,-1.92245l-0.02977,-0.23226c0,0 0,-1.25 1.25,-1.25z" fill="#b7ceff" stroke="none" stroke-width="0.5"/><path d="M286.46196,185.67995c1.25,0 1.25,1.00261 1.25,1.00261l-0.02976,0.62128c-0.64468,2.06863 -4.34094,5.1313 -6.54738,1.9575c-0.55169,-0.79357 -0.08926,-2.94468 0.05221,-3.85244c-0.0082,-3.89797 0.33319,-7.75081 0.33319,-11.64748c0,-0.95858 0.56089,-3.33712 -0.03786,-4.19593c-0.83675,-1.20017 -1.97692,0.80803 -2.00056,1.21095c0,0 -0.13804,0.99647 -1.38039,0.88576c-1.24235,-0.11072 -1.10431,-1.10719 -1.10431,-1.10719c0.6572,-3.5579 6.19331,-4.38751 7.01705,-0.39186c1.00817,4.89029 -0.32258,10.42941 -0.33195,15.37035c-0.14432,0.92609 -0.30671,1.94462 -0.28341,2.87732c0.02371,0.94888 1.82308,-1.45296 1.84294,-1.54197l-0.02976,-0.18629c0,0 0,-1.00261 1.25,-1.00261z" fill="#3373ff" stroke="none" stroke-width="0.5"/></g></g></svg>