<svg version="1.1" xmlns="http://www.w3.org/2000/svg" xmlns:xlink="http://www.w3.org/1999/xlink" width="531.87851" height="432.06086" viewBox="0,0,531.87851,432.06086"><g transform="translate(13.26126,12.98529)"><g data-paper-data="{&quot;isPaintingLayer&quot;:true}" fill-rule="nonzero" stroke-linejoin="miter" stroke-miterlimit="10" stroke-dasharray="" stroke-dashoffset="0" style="mix-blend-mode: normal"><path d="M-13.26126,368.98529v-381.97058h522.52252v381.97058z" fill="#009a05" stroke="none" stroke-width="0" stroke-linecap="butt"/><path d="M66.85013,396.57558c0,0 5.29947,-4.59468 1.63504,-4.99236c-20.71298,-2.24787 -29.39918,-65.37155 -7.42931,-126.51695c3.53039,-43.48375 -23.33327,-111.19559 64.08198,-114.60283c5.09947,-0.19877 10.20741,1.65497 19.18325,5.00128c4.60605,1.71719 8.8837,4.19681 13.53056,7.12799c2.75672,1.7389 6.93951,3.31268 7.85887,5.86522c1.14524,3.1797 4.23804,4.94968 6.5212,7.66657c3.09196,3.67935 5.53303,8.26133 7.44259,12.63173c2.52381,5.7762 4.58154,12.07502 7.84639,17.43392c1.54986,2.54393 2.20977,5.26338 5.47965,6.8949c1.65481,0.82568 2.52408,2.84339 3.81387,3.88367c2.15333,1.73677 4.58511,2.53642 7.25419,3.61028c4.11109,1.65404 14.11553,13.58621 22.94169,6.91461c5.27802,-6.44428 13.1416,-7.14944 17.1805,-13.58867c3.00055,-4.78379 -0.3502,-18.31696 5.41964,-18.74338c4.09076,-28.96748 -4.49757,-40.43316 -5.95485,-68.93874c-0.82077,-16.05493 -0.26169,-27.0324 6.211,-36.53409c5.35693,-7.86379 15.94588,-15.66187 22.58495,-16.03464c5.40246,-0.30334 13.87655,-6.49378 23.98157,-8.77132c7.7114,-1.73805 16.37258,0.05553 25.34327,1.06952c1.90304,0.76875 8.6812,3.44414 13.27218,4.1492c4.3879,0.67387 10.10482,7.37485 11.47714,8.21035c7.45457,4.73413 9.39847,12.01805 11.1825,17.62534c3.11498,0.50843 13.20124,23.34694 25.04678,43.70152c10.82761,18.60544 14.03632,42.38879 15.82704,42.69029c1.85758,0.31276 5.28709,24.3792 12.23806,36.07166c4.82752,8.12053 13.3786,27.21861 19.43146,27.78171c3.29371,0.30642 10.84768,6.15832 11.65941,6.27878c77.9373,53.27813 48.92072,-19.32029 48.92072,-19.32029" fill="none" stroke="#a36700" stroke-width="45" stroke-linecap="round"/></g></g></svg>