<svg version="1.1" xmlns="http://www.w3.org/2000/svg" xmlns:xlink="http://www.w3.org/1999/xlink" width="52.17069" height="58.50406" viewBox="0,0,52.17069,58.50406"><g transform="translate(-214.24264,-150.51125)"><g data-paper-data="{&quot;isPaintingLayer&quot;:true}" fill="#ffffff" fill-rule="nonzero" stroke="#000000" stroke-width="1" stroke-linecap="round" stroke-linejoin="miter" stroke-miterlimit="10" stroke-dasharray="" stroke-dashoffset="0" style="mix-blend-mode: normal"><path d="M233.52218,179.62491c0,0 1.4576,-1.65215 1.29318,-3.44818c-0.39583,-4.32364 -2.02307,-22.09815 -2.02307,-22.09815c0,0 6.64707,17.38465 8.19922,21.44411c0.61552,1.60982 3.29663,2.64243 3.29663,2.64243c0,0 1.29484,0.75836 3.64451,0.77862c3.89311,0.03356 15.51524,0.13375 15.51524,0.13375c0,0 -8.54412,2.88767 -9.12044,5.49521c-0.17252,0.78055 -2.9464,3.1964 -4.69941,4.30309c-0.25756,0.1626 0.54953,1.81077 0.31906,2.8535c-0.83228,3.76562 3.82968,13.09728 3.82968,13.09728c0,0 -6.19416,-7.49892 -9.3851,-8.98158c-2.77135,-1.2877 -8.67981,0.58778 -8.67981,0.58778l-5.10927,9.48864c0,0 2.75915,-14.49115 2.11541,-15.83227c-0.95963,-1.99922 -2.48036,-3.32748 -2.48036,-3.32748l-13.68553,-4.1969c0,0 12.19502,-1.68711 15.4115,-2.13209c1.46585,-0.20279 1.55856,-0.80776 1.55856,-0.80776z"/></g></g></svg>