<svg version="1.1" xmlns="http://www.w3.org/2000/svg" xmlns:xlink="http://www.w3.org/1999/xlink" width="450.90847" height="334.69282" viewBox="0,0,450.90847,334.69282"><g transform="translate(-46.70878,-63.38275)"><g data-paper-data="{&quot;isPaintingLayer&quot;:true}" fill="none" fill-rule="nonzero" stroke="#ffffff" stroke-width="3" stroke-linecap="round" stroke-linejoin="miter" stroke-miterlimit="10" stroke-dasharray="" stroke-dashoffset="0" style="mix-blend-mode: normal"><path d="M66.85012,396.57557c0,0 5.29947,-4.59468 1.63504,-4.99236c-20.71298,-2.24787 -29.39918,-65.37155 -7.42931,-126.51695c3.53039,-43.48375 -23.33327,-111.19559 64.08198,-114.60283c5.09947,-0.19877 10.20741,1.65497 19.18325,5.00128c4.60604,1.71719 8.8837,4.19681 13.53056,7.12798c2.75672,1.7389 6.9395,3.31268 7.85887,5.86523c1.14524,3.1797 4.23804,4.94968 6.5212,7.66657c3.09196,3.67935 5.53303,8.26134 7.44259,12.63173c2.52381,5.7762 4.58155,12.07501 7.84639,17.43391c1.54986,2.54393 2.20977,5.26338 5.47965,6.8949c1.65481,0.82568 2.52409,2.84339 3.81387,3.88367c2.15333,1.73676 4.58512,2.53642 7.25419,3.61028c4.11109,1.65404 14.11553,13.58621 22.94169,6.91461c5.27802,-6.44428 13.1416,-7.14944 17.1805,-13.58867c3.00055,-4.78379 -0.3502,-18.31696 5.41964,-18.74338c4.09076,-28.96748 -4.49757,-40.43316 -5.95485,-68.93874c-0.82077,-16.05493 -0.26169,-27.0324 6.211,-36.53409c5.35693,-7.86379 15.94588,-15.66187 22.58495,-16.03464c5.40246,-0.30334 13.87655,-6.49377 23.98158,-8.77132c7.71139,-1.73805 16.37257,0.05553 25.34326,1.06952c1.90303,0.76875 8.6812,3.44414 13.27219,4.1492c4.3879,0.67387 10.10482,7.37485 11.47713,8.21035c7.45457,4.73413 9.39847,12.01805 11.1825,17.62534c3.11498,0.50843 13.20124,23.34694 25.04678,43.70152c10.82761,18.60544 14.03632,42.38879 15.82704,42.69029c1.85758,0.31276 5.28709,24.3792 12.23806,36.07166c4.82752,8.12053 13.3786,27.21861 19.43146,27.78171c3.29371,0.30642 10.84768,6.15832 11.65941,6.27878c77.9373,53.27813 48.92072,-19.32029 48.92072,-19.32029"/></g></g></svg>