<svg version="1.1" xmlns="http://www.w3.org/2000/svg" xmlns:xlink="http://www.w3.org/1999/xlink" width="16.94357" height="26.69198" viewBox="0,0,16.94357,26.69198"><g transform="translate(-231.52822,-166.65401)"><g data-paper-data="{&quot;isPaintingLayer&quot;:true}" fill-rule="nonzero" stroke="none" stroke-width="1" stroke-linecap="butt" stroke-linejoin="miter" stroke-miterlimit="10" stroke-dasharray="" stroke-dashoffset="0" style="mix-blend-mode: normal"><path d="M241.97275,192.74132c-0.08164,-0.00981 -1.24885,-0.15328 -1.29396,-0.15655c-0.00859,0.00327 -0.01719,0.00655 -0.02793,0.00981c-0.37382,0.15047 -0.68535,0.21917 -0.98183,0.21917c-0.2664,0 -0.50273,-0.06869 -0.70683,-0.16029c-0.29648,0.02944 -0.53496,0.04253 -0.72831,0.04253h-0.90448c-0.41035,-0.02617 -0.77558,-1.75757 -0.69609,-2.36601c0.29648,-2.316 0.18968,-4.36284 0.21914,-6.67231c-0.01289,-1.70102 -0.11387,-6.39846 -0.11172,-6.49005c-0.01862,-0.89085 0.15755,-1.81661 -0.12389,-2.37598c0.08307,-1.28776 0.16113,-1.44369 0.16113,-2.38907c0,-0.10816 -0.04408,-0.52639 0.08737,-3.34098c0.01074,-0.00981 0.01934,-0.01963 0.03007,-0.02617c0.07734,-0.07524 0.1332,-0.13412 0.17402,-0.17664c0.13965,-0.34675 0.31797,-0.65751 0.52851,-0.91593c0.68535,-0.84397 1.4867,-1.28885 2.31599,-1.28885c1.49959,0 2.7027,1.50802 2.99919,3.75533c0.07949,0.61171 0.05371,1.24305 -0.07305,1.83187c-0.02363,0.42526 -0.05586,1.21688 -0.09024,2.66602c-0.00215,0.16683 -0.00859,0.386 -0.02148,0.76219c-0.00859,0.193 -0.01289,0.32712 -0.01504,0.40236v2.93426c0.00215,0.09814 0.01074,0.28132 0.02148,0.54629c0.03222,0.70985 0.03438,0.79817 0.03438,0.9421v3.23848c-0.01228,2.03468 -0.01197,2.17394 -0.02425,3.35297c-0.11264,1.65242 -0.07611,5.73721 -0.7722,5.65543z" fill="#00cccc"/><path d="M248.15069,186.38854c-0.99834,2.76629 -3.71209,4.4477 -8.06397,4.99787c-0.19781,0.02473 -0.39253,0.04018 -0.58726,0.04636c-0.25345,0.3709 -0.58417,0.69234 -0.97361,0.9427c-1.01997,0.65217 -1.97504,0.97052 -2.91774,0.97052c-1.93795,0 -4.02426,-1.44651 -4.02426,-4.62388c0,-0.21636 0.00927,-0.49763 0.03091,-0.88707c0.00927,-0.16691 0.01854,-0.29672 0.02163,-0.39253c-0.05254,-0.24108 -0.08036,-0.48526 -0.08036,-0.73253v-1.49596c0,-0.24418 0.02473,-0.48835 0.07418,-0.73253c0.00309,-0.20708 0.01237,-0.4389 0.02782,-0.69234c-0.07418,-0.27199 -0.12982,-0.58726 -0.12982,-0.93961c0,-0.16073 0.01237,-0.32144 0.034,-0.47908c0.11745,-0.82834 0.48526,-1.65977 1.10652,-2.3243c-0.21327,-0.59653 -0.32453,-1.22706 -0.32453,-1.87304v-1.57632c0,-0.6398 0.12673,-1.43724 0.74798,-3.42155c0.25963,-0.85307 0.34308,-1.11888 0.45744,-1.36615c0.60889,-1.36615 1.52687,-2.04922 2.19449,-2.38612c1.09106,-0.54399 2.26248,-0.82216 3.48027,-0.82216c0.56253,0 1.10034,0.05873 1.61341,0.16999c0.22872,-0.15454 0.47289,-0.28436 0.73253,-0.39253c0.33072,-0.14218 0.68307,-0.24108 1.07252,-0.3029c0.97361,-0.16691 2.00286,0.04018 2.89919,0.58417c0.9427,0.57489 2.02449,1.76796 1.89159,4.22207c-0.02163,0.43272 -0.05873,1.0107 -0.11436,1.76486c-0.00309,0.01854 -0.00309,0.03709 -0.00618,0.05563c-0.04945,0.54708 -0.12054,1.36305 -0.21636,2.44176c0.02473,0.41726 0.01545,0.88398 -0.02163,1.43415c-0.01545,0.21018 -0.04945,0.42035 -0.10509,0.62434c-0.01237,0.04636 -0.02473,0.08963 -0.03709,0.12982c0.41726,0.53471 0.70162,1.06943 0.89634,1.53305c0.18236,0.36781 0.3369,0.79125 0.47289,1.30742c0.05254,0.19473 0.08654,0.39253 0.102,0.59344c0.13908,1.73396 0.068,2.75702 -0.25345,3.62245z" fill="#00cccc"/><path d="M245.01535,183.03931c0.09056,1.12413 0.07201,1.84862 -0.0544,2.17502c-0.52606,1.48638 -2.29339,2.4195 -5.30139,2.80029c-1.01534,0.12703 -2.03006,-0.35328 -3.04539,-1.44094c0,0.16319 0.03616,0.65248 0.10911,1.46845c0.0544,0.59807 0.04513,1.08736 -0.0272,1.46783c-0.45342,0.28992 -0.81567,0.43519 -1.08766,0.43519c-0.41726,0 -0.62527,-0.40768 -0.62527,-1.22366c0,-0.14496 0.00897,-0.37585 0.0272,-0.69297c0.01793,-0.31681 0.0272,-0.53904 0.0272,-0.66607c0,-0.30815 -0.0272,-0.52544 -0.0816,-0.65248v-1.49534c0,-0.03616 0.00897,-0.07696 0.0272,-0.1224c0.01793,-0.04513 0.03616,-0.08593 0.0544,-0.1224c-0.01823,-0.25345 -0.00927,-0.6432 0.0272,-1.16895c0.03616,-0.32639 0.03616,-0.5344 0,-0.62527c-0.09087,-0.18081 -0.13569,-0.28961 -0.13569,-0.32608c0.07201,-0.50752 0.44415,-0.76127 1.11455,-0.76127c0.43488,0 0.6976,0.15423 0.78847,0.46208c0,0.28992 0.03616,0.71615 0.1088,1.27775c0.10911,0.65248 0.45311,1.30526 1.03327,1.95742c0.63424,0.74335 1.24127,1.08766 1.82174,1.03327c0.65248,-0.07201 1.30495,-0.22625 1.95742,-0.46208c0.90623,-0.32639 1.4499,-0.70687 1.63134,-1.14175c0.12642,-0.32639 0.19009,-0.6704 0.19009,-1.03327c0,-1.10528 -0.40768,-1.93022 -1.22335,-2.4739c-0.36286,-0.23552 -1.03327,-0.42592 -2.01213,-0.57119c-0.56191,-0.07201 -0.90654,-0.1088 -1.03295,-0.1088c-0.87007,0.01823 -1.68141,-0.26272 -2.43341,-0.84287c-0.75231,-0.57984 -1.12815,-1.25086 -1.12815,-2.01213v-1.57663c0,-0.34401 0.19936,-1.15072 0.59838,-2.4195c0.18081,-0.59838 0.28064,-0.91519 0.29919,-0.95166c0.16289,-0.38048 0.37121,-0.63424 0.62497,-0.76127c0.616,-0.30785 1.26848,-0.46208 1.95742,-0.46208c1.34111,0 2.32894,0.54368 2.96349,1.63103c0.0544,0.0544 0.14496,0.136 0.27199,0.24479c0.01793,-0.25345 0.0544,-0.6432 0.1088,-1.16895c-0.01823,-0.23552 -0.03647,-0.46208 -0.0544,-0.67967c0,-0.25345 0.12642,-0.4256 0.38048,-0.51648c0.07232,-0.03616 0.17216,-0.06336 0.29919,-0.0816c0.18112,-0.03616 0.37615,0.00927 0.58478,0.13569c0.20801,0.12703 0.29425,0.50782 0.25808,1.14175c-0.01823,0.39872 -0.0544,0.96063 -0.1088,1.68543c-0.0544,0.59838 -0.13569,1.51358 -0.24479,2.7462c0.03616,0.28992 0.03616,0.68895 0,1.19615c-0.09087,0.34432 -0.36286,0.51648 -0.81567,0.51648c-0.23583,0 -0.46208,-0.06336 -0.67967,-0.19009c-0.1088,-0.34401 -0.16289,-0.48959 -0.16289,-0.43519c0.03585,-0.48927 -0.06367,-1.14175 -0.29919,-1.95742c-0.19967,-0.41664 -0.47568,-1.01008 -0.82927,-1.78063c-0.35359,-0.77023 -0.82031,-1.18286 -1.40015,-1.23726c-0.72511,-0.0544 -1.19615,0.1904 -1.41374,0.73407c-0.07232,0.23583 -0.17247,0.58045 -0.29889,1.03327c-0.2176,0.67071 -0.35359,1.31422 -0.40799,1.93022c-0.01823,0.19967 -0.03647,0.28127 -0.0544,0.24479c0.0544,0.36286 0.11776,0.72511 0.1904,1.08766c0.09056,0.45311 0.31279,0.79774 0.66607,1.03295c0.35359,0.23583 1.02832,0.38048 2.02542,0.43488c2.4467,0.14558 3.95997,0.99741 4.54012,2.55581c0.09025,0.14527 0.18081,0.38975 0.27168,0.73377z" fill="#ffffff"/><path d="M238.8247,190.8099c-0.46501,0.03429 -0.10086,-2.30849 0.09333,-2.44603c0.08585,-2.44425 0.03243,-6.352 -0.16176,-11.72133c0.08585,-1.00529 0.17244,-2.65037 0.25904,-4.93564c-0.15144,-0.0226 -0.46833,-3.18368 0.02911,-3.18368c0.64814,0 2.14229,0.06457 2.27199,0.74996c-0.04348,0.09156 -0.08622,0.21781 -0.1297,0.37718c-0.08659,0.70838 -0.16176,2.05616 -0.22698,4.04452c0,0.11456 -0.01105,0.36549 -0.03243,0.75396c-0.02174,0.38887 -0.03243,0.6059 -0.03243,0.65149v3.66696c0,0.04598 0.01621,0.32575 0.04864,0.83968c0.03243,0.51395 0.04901,0.7941 0.04901,0.83968l-0.42111,10.09656c0.44976,0.08833 -0.4285,0.22072 -1.21165,0.39437c-0.23251,0.05156 -0.42878,-0.13553 -0.53507,-0.12769z" fill="#ffffff"/></g></g></svg>