<svg version="1.1" xmlns="http://www.w3.org/2000/svg" xmlns:xlink="http://www.w3.org/1999/xlink" width="108.17099" height="33.79018" viewBox="0,0,108.17099,33.79018"><g transform="translate(-213.09531,-161.17563)"><g data-paper-data="{&quot;isPaintingLayer&quot;:true}" fill-rule="nonzero" stroke="none" stroke-width="1" stroke-linecap="butt" stroke-linejoin="miter" stroke-miterlimit="10" stroke-dasharray="" stroke-dashoffset="0" style="mix-blend-mode: normal"><g><path d="M249.06904,167.23659c0,2.57324 -1.53206,4.63577 -3.91131,5.2573c-0.07522,0.0198 -0.15439,0.03958 -0.22961,0.05938c-0.07917,0.6334 -0.17816,1.32225 -0.29295,2.07442l-0.58194,4.11717c-0.2019,1.61518 -0.72446,4.71496 -1.59936,9.4774c-0.00396,0.01584 -0.00793,0.02772 -0.00793,0.04355c-0.22566,1.15993 -0.33649,1.5954 -0.50672,2.03087c-0.00793,0.0198 -0.01584,0.03564 -0.02375,0.05145c-0.57799,1.40537 -1.63895,2.50593 -3.06412,3.18289c-0.5859,0.27316 -1.22327,0.41568 -1.86461,0.41568c-0.12272,0 -0.24149,-0.00396 -0.3642,-0.01187c-0.28503,-0.02375 -0.56214,-0.05145 -0.8274,-0.07522c-0.05145,-0.00396 -0.10294,-0.00793 -0.15439,-0.01584c-1.71021,-0.21377 -2.77908,-0.98575 -3.39666,-1.65083c-0.17419,-0.18608 -0.33649,-0.38005 -0.48693,-0.58987c-0.35233,0.31275 -0.70467,0.54631 -1.02928,0.72446c-0.37608,0.20981 -0.78384,0.36026 -1.20745,0.44735c-0.45527,0.09501 -1.11243,0.22961 -1.97544,0.39589c-0.78782,0.15439 -1.60728,0.0871 -2.35944,-0.19397c-0.77989,-0.29295 -1.50435,-0.77989 -2.21297,-1.48851c-0.4988,-0.4988 -0.87093,-1.11243 -1.08075,-1.78939c-0.74821,-2.41488 -1.71417,-5.96197 -2.95327,-10.83924c-0.00793,-0.04355 -0.0198,-0.08314 -0.02772,-0.12667c-0.13064,-0.58194 -0.33255,-1.44497 -0.6057,-2.58114c-0.18608,-0.57403 -0.41964,-1.30246 -0.69675,-2.18923c-1.42913,-0.34838 -2.41488,-1.09263 -3.0483,-1.74981c-0.60174,-0.62153 -1.31828,-1.68249 -1.44893,-3.2977c-0.01187,-0.1148 -0.01584,-0.23356 -0.01584,-0.35233c0,-1.33412 0.43547,-2.54948 1.25495,-3.52335c0.85511,-1.03721 1.78542,-1.69438 2.8464,-2.00713c0.85511,-0.27316 1.8448,-0.42755 3.01266,-0.45923c0.6057,-0.01584 1.2114,-0.01187 1.80126,-0.02772c0.52652,-0.0673 1.22327,-0.15439 2.09817,-0.25733c0.12272,-0.01584 0.2494,-0.02375 0.37608,-0.02772c0.16626,-0.00793 0.32858,-0.00793 0.479,-0.00793c1.04514,0 1.8844,0.1148 2.63659,0.36817c0.02375,0.00396 0.04355,0.01187 0.0673,0.0198c0.384,0.13459 0.74426,0.30878 1.0768,0.51069c0.35629,-0.13459 0.72842,-0.23753 1.12035,-0.30878c0.14647,-0.02375 0.29295,-0.04355 0.4434,-0.05145c0.70071,-0.05145 1.40141,0.01187 2.0863,0.18211c1.06493,-1.14805 2.5851,-1.79731 4.31115,-1.79731c0.479,0 1.03324,0.06335 1.85668,0.20587c0.03958,0.00396 0.07917,0.01187 0.1148,0.0198c0.00396,0 0.00396,0 0.00396,0c0.52256,-0.03564 1.11243,-0.01187 2.00316,0.0673c0.6334,0.04751 1.27474,0.09107 1.92399,0.13459c1.23515,0.07522 2.29215,0.28899 3.19872,0.64924c0.07917,0.03167 0.15439,0.06335 0.22961,0.09897c1.90022,0.88678 3.03245,2.71575 3.03245,4.88517z" fill="#00cccc"/><path d="M244.19336,166.29754c0.34838,0.16271 0.52217,0.47624 0.52217,0.94021c0,0.58076 -0.22091,0.92913 -0.66151,1.04472c-0.44141,0.1164 -0.83572,0.16271 -1.18408,0.13974c-0.04672,0 -0.34797,-0.08115 -0.9054,-0.24386c-0.44102,-0.11599 -0.81275,-0.16192 -1.114,-0.13935c-0.02336,0.02336 -0.03483,0.65044 -0.03483,1.88044c-0.06968,1.04472 -0.23239,2.40261 -0.48733,4.07401c-0.34838,2.4612 -0.54592,3.85352 -0.59185,4.17893c-0.18608,1.50909 -0.70862,4.59617 -1.5669,9.26243c-0.13974,0.71892 -0.23239,1.13696 -0.27871,1.25376c-0.16271,0.39429 -0.46477,0.69636 -0.9054,0.905c-0.27829,-0.02336 -0.54552,-0.04672 -0.80046,-0.06968c-0.37174,-0.04672 -0.62707,-0.15122 -0.76642,-0.31314c-0.25573,-0.25573 -0.44102,-0.68488 -0.557,-1.2886c-0.23239,-0.9517 -0.34838,-1.43943 -0.34838,-1.46239c-0.18608,-0.58036 -0.65003,-2.26364 -1.39311,-5.04947c-0.39469,-1.53206 -0.99802,-3.86539 -1.81036,-6.99918c-0.16271,0.83572 -0.32541,1.9038 -0.48733,3.20347c-0.18647,1.81076 -0.3951,3.48257 -0.62707,5.01463c-0.1164,0.99802 -0.31314,2.39113 -0.59185,4.17893c-0.18608,0.88242 -0.51069,1.45052 -0.97506,1.70625c-0.44102,0.09224 -1.07957,0.22052 -1.91528,0.38321c-0.18608,-0.06968 -0.40617,-0.23239 -0.66151,-0.48733c-0.71971,-2.32106 -1.68329,-5.8618 -2.89033,-10.62071c-0.13935,-0.62668 -0.36026,-1.5669 -0.66151,-2.82065c-0.30206,-0.92834 -0.74347,-2.32106 -1.32344,-4.17893c-0.04672,-0.27829 -0.18608,-0.66151 -0.41804,-1.14886c-0.69636,0.1164 -1.16112,0.17379 -1.39311,0.17379c-0.71971,0 -1.27713,-0.20863 -1.67142,-0.62668c-0.13974,-0.13935 -0.2213,-0.34838 -0.24386,-0.62668c0,-0.30166 0.08115,-0.54513 0.24386,-0.7316c0.30127,-0.37095 0.557,-0.57997 0.76603,-0.62668c0.46437,-0.16192 1.09105,-0.25533 1.88044,-0.27871c0.67301,0 1.34599,-0.01109 2.01978,-0.03483c0.53405,-0.06968 1.2886,-0.16192 2.26364,-0.27829c0.71931,-0.02297 1.25376,0.02336 1.60174,0.13935c0.46437,0.16271 0.69675,0.49962 0.69675,1.0099c0,0.23239 -0.04672,0.40656 -0.13974,0.52217c-0.27829,0.30206 -0.6734,0.48733 -1.18369,0.557c-0.41804,0.04672 -0.84798,0.08194 -1.2886,0.10491c-0.13935,0.02336 -0.34797,0.06968 -0.62668,0.13935c-0.18608,0.1164 -0.26723,0.37134 -0.24346,0.76603c0.02297,0.3951 0.23159,1.14925 0.62668,2.26364c0.18565,0.53444 0.70784,2.70466 1.5669,6.51187c0.37134,1.27713 0.92834,3.23832 1.67181,5.88478c-0.02375,0 0.01109,0.04672 0.10451,0.13935c0.32462,-1.23001 0.62668,-2.87846 0.9054,-4.94457c0.18565,-1.41567 0.37095,-2.83213 0.557,-4.2482c0.04591,-0.44062 0.11599,-1.09105 0.20863,-1.95011c0.09224,-0.51029 0.20903,-1.31116 0.34838,-2.40261c0,-0.71892 0.08115,-1.78741 0.24346,-3.20386c0.09264,-0.41765 0.40578,-0.67259 0.94021,-0.76603c0.32501,-0.02297 0.65003,0.02336 0.97506,0.13935c0.41804,0.16271 0.62707,0.3951 0.62707,0.69675c0,0.85906 0.13935,1.85708 0.41765,2.99443c0.232,0.6734 0.51069,1.6251 0.83572,2.8555c0.06968,0.37134 0.94021,3.77236 2.61164,10.20266c0.04633,0.13935 0.11599,0.26723 0.20903,0.38282c0.32462,-1.20664 0.557,-2.23991 0.69636,-3.09896c0.41804,-2.46041 0.96317,-6.27909 1.63697,-11.4564c0.02297,-0.04591 0.01109,-0.67259 -0.03523,-1.88004c-0.04672,-0.07007 -0.10451,-0.11599 -0.17379,-0.13974c-0.62668,-0.13935 -1.26524,-0.27829 -1.91528,-0.41804c-0.83572,-0.18526 -1.25337,-0.45249 -1.25337,-0.80046c0,-0.09224 0.03483,-0.19714 0.10451,-0.31353c0.23159,-0.51029 0.68449,-0.76603 1.35828,-0.76603c0.20863,0 0.57997,0.04672 1.114,0.13935c0.46398,0.09303 0.81234,0.12194 1.04472,0.0871c0.232,-0.03483 0.71931,-0.01741 1.46239,0.05227c0.64964,0.04672 1.31116,0.09303 1.98496,0.13935c0.78821,0.04552 1.41488,0.16114 1.87965,0.34679z" fill="#ffffff"/></g><g><path d="M276.39903,189.06135c-0.04882,0.06212 -0.09759,0.12422 -0.15527,0.1863c-0.9582,1.09571 -2.20032,1.65023 -3.0698,1.96965c-1.6458,0.64767 -3.0565,1.43287 -4.18771,2.3334c-0.05768,0.04882 -0.11533,0.09316 -0.17744,0.13752c-1.10015,0.79406 -2.47536,1.2155 -4.21432,1.27316c-0.05768,0.00444 -0.11533,0.00444 -0.173,0.00444c-1.34856,0 -2.64392,-0.47911 -3.74408,-1.38408c-0.53676,-0.43918 -0.98039,-0.9582 -1.32196,-1.53047c-0.71422,0.27504 -1.48166,0.41699 -2.26685,0.41699c-0.29279,0 -0.57225,-0.02216 -0.84729,-0.07098c-0.1863,-0.0266 -0.57669,-0.07984 -1.18,-0.16414c-0.12422,-0.0133 -0.71422,-0.07098 -3.33595,-0.28834c-0.0266,0 -0.05324,-0.00444 -0.07984,-0.00886c-1.88092,-0.1863 -3.1186,-0.53676 -4.14778,-1.17114c-0.04882,-0.0266 -0.09759,-0.05768 -0.14197,-0.09316c-1.57925,-1.05138 -2.52416,-2.80363 -2.52416,-4.68014c0,-3.03431 2.01399,-5.40764 5.01283,-5.90892c0.03994,-0.00444 0.07542,-0.00886 0.11533,-0.01774c0.35932,-0.04882 0.73641,-0.07098 1.12236,-0.07542c0.00886,-0.06654 0.02216,-0.13311 0.03547,-0.20406c0.01774,-0.09759 0.03994,-0.19519 0.06654,-0.29279c0.39481,-1.57039 0.80294,-3.37146 1.22438,-5.39433c-1.60144,-0.25728 -2.68829,-1.18 -3.0831,-1.51716c-0.67873,-0.57669 -1.18887,-1.33083 -1.4728,-2.17369c-0.68316,-2.05393 -0.15083,-4.28975 1.39295,-5.83796c0.95377,-0.95377 2.14266,-1.57925 3.42911,-1.8055c0.27948,-0.04882 0.71422,-0.12866 1.30866,-0.24842l0.06654,-0.0133c1.31752,-0.24398 2.83026,-0.42142 4.62688,-0.54122c1.29536,-0.08873 1.29536,-0.08873 1.49053,-0.08873c0.20406,0 0.40811,0.0133 0.61219,0.03994c1.89866,0.23955 3.54889,1.3131 4.52043,2.95446c0.45248,0.75857 0.81182,1.68573 1.14452,2.92784c0.19964,0.73641 0.29722,1.06024 0.33713,1.18c0.08873,0.20851 0.21738,0.49684 0.38151,0.86503c0.06654,0.1464 0.12422,0.29722 0.173,0.44804c0.00444,0.00886 0.08428,0.23955 0.39039,0.90497c0.02216,0.05324 0.04438,0.10203 0.06654,0.15527c0.59889,1.42843 1.53491,3.66422 2.80806,6.70742c0.02216,0.05768 0.04882,0.11533 0.07098,0.173c0.13752,0.36819 0.30166,0.80294 0.49241,1.2998c1.59258,-0.11977 3.14078,0.38595 4.41837,1.43287c0.12866,0.10203 0.25285,0.21295 0.36819,0.32827c1.2155,1.2155 1.4728,2.72378 1.55708,3.22063c0.02216,0.15083 0.03994,0.30166 0.05324,0.45693c0.1464,1.98739 -0.55009,3.32265 -1.16226,4.09454zM255.66902,192.26423c-0.55452,-0.173 -1.07354,-0.43918 -1.52602,-0.78075c0.45248,0.34601 0.96709,0.61661 1.52602,0.78075z" fill="#00cccc"/><path d="M272.57777,186.02882c-0.18277,0.20851 -0.55984,0.41612 -1.13165,0.62417c-2.13422,0.83265 -3.96724,1.86004 -5.50169,3.08266c-0.28657,0.20806 -0.79452,0.32474 -1.52246,0.35089c-0.20851,0 -0.42321,-0.09138 -0.64368,-0.27282c-0.22136,-0.18187 -0.33183,-0.39039 -0.33183,-0.62417c0,-0.3123 0.35133,-0.71512 1.05359,-1.21018c0.49374,-0.31186 0.98881,-0.63748 1.48344,-0.97551c0.02529,-0.12954 -0.40369,-1.66443 -1.28913,-4.60427c-1.43197,-0.02573 -3.68421,0.44184 -6.75578,1.40403c-0.18277,0.05235 -0.28701,0.15617 -0.31275,0.3123c-0.02618,0.15617 -0.06521,0.41567 -0.11712,0.77987c-0.05014,0.07808 -0.0998,0.19475 -0.14951,0.35089c0,0.10424 0.14951,0.21516 0.44891,0.33227c0.29856,0.11756 0.48798,0.22847 0.56559,0.33183c0.07808,0.10424 0.11712,0.2338 0.11712,0.39039c0,0.31186 -0.13664,0.60508 -0.4099,0.87836c-0.27282,0.27282 -0.60464,0.40946 -0.99457,0.40946c0.02573,0 -0.44272,-0.06478 -1.40493,-0.19475c-0.18232,-0.02573 -1.36589,-0.12998 -3.55112,-0.31186c-1.04073,-0.1038 -1.73008,-0.25995 -2.06769,-0.46847c-0.23422,-0.15617 -0.35133,-0.3642 -0.35133,-0.62417c0,-0.62461 0.3123,-0.98881 0.93645,-1.09262c0.36376,-0.0519 0.83223,-0.02618 1.40448,0.07808c0.12998,0.05235 1.15693,0.14284 3.08266,0.27282c0.15617,-1.09262 0.41612,-2.61466 0.78031,-4.56521c0.80604,-3.19978 1.65202,-7.25796 2.53658,-12.17451c-0.2604,-0.05145 -0.53322,-0.07808 -0.81935,-0.07808c-0.49462,0 -1.22926,0.14328 -2.20521,0.42942c-0.97506,0.28657 -1.69727,0.42942 -2.16572,0.42942c-0.18187,0 -0.44227,-0.14241 -0.78031,-0.42942c-0.10424,-0.3123 -0.03283,-0.59134 0.21426,-0.83888c0.2471,-0.2471 0.52036,-0.39659 0.81981,-0.44891c0.299,-0.0519 0.77365,-0.14284 1.42443,-0.27325c1.11835,-0.20806 2.47092,-0.36376 4.05772,-0.46847c0.75414,-0.05145 1.14452,-0.07808 1.17067,-0.07808c0.41612,0.05235 0.72842,0.25375 0.93645,0.60464c0.20806,0.35133 0.41612,0.91694 0.62417,1.69727c0.25995,0.96309 0.43517,1.54821 0.527,1.75626c0.09094,0.20851 0.24045,0.5461 0.44891,1.01454c0.10337,0.31186 0.29856,0.78031 0.58512,1.40448c0.59843,1.43108 1.53446,3.66823 2.80985,6.71142c0.46802,1.24876 1.20974,3.14832 2.22428,5.69732c0.44184,-0.0519 1.01454,-0.27325 1.71633,-0.6632c0.70267,-0.39039 1.2226,-0.58512 1.56151,-0.58512c0.31186,0 0.61085,0.11712 0.89742,0.35089c0.07808,0.07808 0.14197,0.27325 0.19475,0.58512c0.02618,0.33892 -0.01285,0.57315 -0.11623,0.70311zM263.91491,180.37229c-0.44406,-0.85839 -1.00433,-2.15995 -1.68217,-3.9038c-0.26085,-0.59843 -0.96443,-2.15949 -2.11204,-4.68455l-1.92971,9.83755c2.3365,-0.44184 4.16596,-0.78031 5.49015,-1.01498c0.15571,-0.10337 0.2338,-0.18187 0.2338,-0.23422z" fill="#ffffff"/></g><g><path d="M296.1639,166.16189c0,0.61332 -0.11152,1.22661 -0.32709,1.8325c-0.58729,1.73586 -1.89941,2.96249 -3.59437,3.43828c-0.11895,0.78429 -0.33825,2.09269 -0.75458,4.41213c-0.01113,0.05205 -0.01857,0.10408 -0.02973,0.15612c-0.35683,1.61318 -0.86607,4.07019 -1.50541,7.304c-0.12268,0.73226 -0.27878,1.44222 -0.46834,2.10758c-0.14868,0.80288 -0.30852,1.59834 -0.47577,2.3752c-0.01113,0.05575 -0.02602,0.11524 -0.0409,0.17099c-0.57243,2.18934 -1.94031,3.80254 -3.85087,4.54223c-0.02231,0.00744 -0.0409,0.01487 -0.05948,0.02231c-0.84747,0.31225 -1.5686,0.4572 -2.27856,0.4572c-0.97386,0 -1.88454,-0.28249 -2.64283,-0.82147c-0.62819,-0.43489 -1.32327,-1.00734 -1.78788,-1.92913c-0.18214,-0.36427 -0.30852,-0.75458 -0.37544,-1.15973c-0.00744,-0.03344 -0.0409,-0.22676 -0.15612,-0.69509c-0.1078,-0.30852 -0.368,-1.0482 -0.78058,-2.21537c-0.02602,-0.07806 -0.05205,-0.15983 -0.07433,-0.23789c-0.12637,-0.43862 -0.32339,-1.10396 -0.59101,-1.99606c-0.28622,-0.86978 -0.56128,-1.7656 -0.82519,-2.66514c-0.42375,-1.31955 -1.04449,-3.30817 -1.88827,-6.05879c-0.52411,-0.10408 -1.03705,-0.26762 -1.52771,-0.49809c-0.30481,-0.14495 -0.59101,-0.32339 -0.85491,-0.53896c-1.18201,-0.96643 -1.85851,-2.39378 -1.85851,-3.91776c0,-2.26369 1.36416,-4.1854 3.47916,-4.89164c0.02602,-0.00744 0.04831,-0.01487 0.07433,-0.02231c1.20434,-0.37544 2.25252,-0.59472 3.19294,-0.65792c0.27506,-0.05948 0.58729,-0.11524 0.94786,-0.17099c0.31596,-0.04831 0.63934,-0.05575 0.95529,-0.02973c0.05205,-0.0037 0.18586,-0.01857 0.42375,-0.06691c0.66535,-0.13381 1.16343,-0.21187 1.57603,-0.24905c0.0855,-0.13752 0.17842,-0.27134 0.27878,-0.39772c0.65048,-0.81777 1.88083,-1.83623 4.04043,-2.06294c0.03344,-0.0037 0.06691,-0.00744 0.09663,-0.01113c0.50925,-0.0409 1.29354,-0.11524 2.35288,-0.21931c0.07063,-0.00744 0.14495,-0.01113 0.21931,-0.01487c0.47577,-0.02231 1.11512,-0.04461 1.92169,-0.06318c0.6319,-0.05205 1.03705,-0.0855 1.21548,-0.10408c0.16725,-0.01857 0.33825,-0.02973 0.50925,-0.02973c3.58695,0 5.46407,2.46813 5.46407,4.9065z" fill="#00cccc"/><path d="M291.97591,166.65144c-0.19589,0.6107 -0.65382,0.91551 -1.37309,0.91551c-0.15276,0 -0.45758,-0.02154 -0.91551,-0.0654c-0.37096,-0.04312 -0.65382,-0.05427 -0.8501,-0.03272c-0.04386,0.02231 -0.10927,0.0654 -0.19589,0.13085c-0.0654,0.32709 -0.17509,1.1337 -0.32709,2.41981c-0.08736,0.74118 -0.37096,2.44098 -0.8501,5.10053c-0.37096,1.67862 -0.88278,4.16347 -1.53663,7.45455c-0.10927,0.67576 -0.2509,1.30804 -0.42523,1.89645c-0.15276,0.82853 -0.31633,1.64628 -0.49028,2.45251c-0.24012,0.91551 -0.69768,1.50391 -1.37309,1.7656c-0.58842,0.21745 -0.97015,0.26131 -1.14447,0.13085c-0.28361,-0.19589 -0.44679,-0.33825 -0.49028,-0.42523c-0.04386,-0.26131 -0.13085,-0.65382 -0.26131,-1.17681c-0.04386,-0.13123 -0.32709,-0.93705 -0.8501,-2.41981c-0.13085,-0.45758 -0.33825,-1.15488 -0.62112,-2.09269c-0.28398,-0.87165 -0.55608,-1.75407 -0.81738,-2.64802c-0.43639,-1.35152 -1.10099,-3.48732 -1.99458,-6.40819c-0.15238,-0.76313 -0.41407,-1.67862 -0.78429,-2.74652c-0.91551,0.21821 -1.50428,0.32673 -1.7656,0.32673c-0.37096,0 -0.71962,-0.07583 -1.04598,-0.22859c-0.24012,-0.19625 -0.35981,-0.44642 -0.35981,-0.75194c0,-0.52298 0.22859,-0.8605 0.68654,-1.01363c1.04636,-0.32709 1.89645,-0.49028 2.55027,-0.49028c0.21745,-0.0654 0.54454,-0.13085 0.98095,-0.19625c0.39254,0.04386 0.91551,0 1.56934,-0.13085c0.65419,-0.13085 1.08983,-0.19589 1.30804,-0.19589c0.32709,0 0.62149,0.0654 0.88278,0.19589c0.21783,0.19625 0.32709,0.44717 0.32709,0.75194c0,0.54492 -0.26169,0.89396 -0.78467,1.04598c-0.47951,0.02231 -1.1337,0.16319 -1.96148,0.42523c0.04348,0.76349 0.14162,1.3846 0.29439,1.86373c0.32673,0.98095 0.78429,2.34359 1.37309,4.08688c0.02154,0.21821 0.07583,0.51257 0.16319,0.88278c0.45758,1.74402 1.23109,4.20695 2.32131,7.38911c0.13085,-0.30443 0.29439,-0.90288 0.49028,-1.79459c0.23975,-1.26193 0.39254,-2.01241 0.45758,-2.25217c0.39254,-1.52288 0.73003,-3.07809 1.01363,-4.66675c0.41372,-2.17559 0.6319,-3.31746 0.65419,-3.42638c0.28287,-1.37047 0.47912,-2.46925 0.58842,-3.29591c0.0866,-0.60921 0.16319,-1.2073 0.22859,-1.79497c-0.02192,-0.02154 -0.04386,-0.04312 -0.0654,-0.0654c-1.48235,0.02231 -2.28858,0.02231 -2.41943,0c-0.19589,0 -0.45758,-0.17173 -0.78467,-0.51556c0,-0.02154 0.01636,-0.05389 0.04909,-0.09663c0.03309,-0.04275 0.05985,-0.07547 0.08214,-0.09701c-0.02231,-0.12898 -0.01113,-0.3111 0.03272,-0.54788c0.23975,-0.30035 0.66463,-0.48321 1.27531,-0.54788c0.52298,-0.04275 1.32923,-0.11782 2.41943,-0.22563c0.47912,-0.02154 1.13296,-0.04275 1.96148,-0.0643c1.04598,-0.0855 1.54741,-0.12898 1.50391,-0.12898c0.91551,0 1.37309,0.27282 1.37309,0.81738c-0.00111,0.15313 -0.03383,0.31671 -0.09924,0.49064z" fill="#ffffff"/></g><g><path d="M320.99,186.55713c0.33525,1.50269 0.00396,2.64646 -0.41412,3.4116c-1.06884,2.03908 -3.03296,3.25384 -5.28108,3.25384c-0.4299,0 -0.87951,-0.04338 -1.36465,-0.13804h-1.76301c-0.46145,0 -1.32915,-0.02761 -3.4905,-0.2682c-1.28182,-0.14593 -2.36644,-0.21692 -3.21835,-0.21692h-2.14557c-0.05521,0.00396 -0.24847,0.01577 -0.70993,0.06309c-0.72176,0.07494 -1.26999,0.11044 -1.73144,0.11044c-1.34097,0 -2.53998,-0.27608 -3.56148,-0.81642c-0.06705,-0.03549 -0.13014,-0.07494 -0.1972,-0.11044c-0.68627,-0.41412 -2.2836,-1.64861 -2.2836,-4.2438c0,-1.40013 0.52062,-2.6938 1.46326,-3.64431c0.4575,-0.4654 0.98601,-0.84402 1.56578,-1.13195c-1.30548,-1.42774 -1.69988,-3.45105 -0.99391,-5.36392c0.27608,-0.72965 0.68232,-1.3686 1.20294,-1.90891c-2.36644,-0.7967 -3.50625,-2.79634 -3.58119,-4.72892c-0.20114,-1.4869 0.37863,-2.99748 1.58155,-3.96377c1.19111,-0.95841 2.62675,-1.51846 4.14914,-1.62889c0.09861,-0.00396 0.20114,-0.00789 0.30368,-0.00789h1.21082c2.60703,-0.04732 7.03225,-0.6902 13.14948,-1.91287c0.78881,-0.1775 1.60523,-0.14593 2.47292,0.10255c0.4023,0.11437 1.31337,0.37863 2.12978,1.17927c0.17354,0.1696 0.32736,0.35102 0.46934,0.54427c0.54427,0.74937 0.91896,1.5934 1.11617,2.50842c0.08281,0.39836 0.11044,0.80065 0.08281,1.20294c-0.04732,0.74542 -0.01972,1.56974 0.08281,2.44925c0.13014,1.0649 -0.14198,2.14161 -0.75726,3.01719c-0.94263,1.33308 -2.3822,2.17711 -4.03873,2.3822c0.00396,0.07099 0.00789,0.14593 0.00789,0.21692v0.33525c1.21871,0.11437 2.33883,0.63104 3.19469,1.48297c1.40802,1.41592 1.41985,3.16707 1.35676,4.07026c0.07099,0.47329 0.09466,0.78093 0.09466,1.08461c0,0.3668 -0.03549,0.76909 -0.11437,1.31337c-0.00789,0.05917 -0.01577,0.10648 -0.02367,0.15381v1.05305c0.01184,0.05128 0.02367,0.09861 0.03549,0.14987z" fill="#00cccc"/><path d="M316.9288,171.81584c-0.27725,0.39362 -0.70559,0.59003 -1.28341,0.59003c-0.30093,0 -0.56716,-0.05759 -0.79788,-0.17354c-0.02327,-0.62435 -0.08124,-1.54924 -0.17315,-2.77543c-1.96612,0.37034 -5.10005,0.91385 -9.40143,1.63087c-0.20824,0.02327 -0.38177,0.08124 -0.52062,0.17315c0.11555,2.12821 0.17354,4.20988 0.17354,6.2446c0.23427,0.04654 0.97299,-0.05759 2.21576,-0.31238c0.60975,-0.0919 1.54842,-0.31198 2.81448,-0.65906c0.02286,-0.36995 -0.02327,-0.98877 -0.13883,-1.85606c-0.11594,-0.8673 -0.1621,-1.509 -0.13883,-1.92549c0,-0.43898 0.30014,-0.65906 0.902,-0.65906c0.69376,0 1.06332,0.2891 1.10985,0.8673c0.0919,0.87912 0.23073,2.19723 0.41648,3.95471v5.37732c0.06941,0.09269 0.11516,0.1621 0.13883,0.20785c-0.06941,0.27768 -0.26622,0.5151 -0.58963,0.7115c-0.3242,0.1968 -0.64802,0.29462 -0.97142,0.29462c-0.41648,0 -0.69415,-0.18459 -0.83258,-0.55493c0.04614,-0.23073 0.08085,-0.58963 0.10413,-1.07555v-3.19153c-1.46757,0.04654 -3.12094,0.34668 -4.96084,0.90161c0,0.41648 -0.01184,1.48059 -0.0347,3.19192c-0.02367,1.41078 -0.02367,2.37116 0,2.87954c0,0.11594 0.0919,0.3242 0.27768,0.62435c0.48552,0.02367 1.23686,0.06941 2.25481,0.13922c1.17966,0.11594 2.35894,0.23113 3.5386,0.34668c1.41039,0.1621 2.59006,0.22048 3.53899,0.17354c0.02286,-0.30053 0.08045,-0.775 0.17315,-1.42224v-2.04695c-0.13883,-0.23073 -0.20824,-0.45119 -0.20824,-0.65906c0,-0.34707 0.14437,-0.6417 0.43386,-0.88464c0.28871,-0.24255 0.60739,-0.36442 0.95407,-0.36442c0.27768,0 0.49734,0.08163 0.65945,0.24294c0.0919,0.09269 0.11516,0.39362 0.06941,0.902c-0.02367,0.11594 -0.01184,0.31829 0.0347,0.607c0.04614,0.28949 0.06941,0.48039 0.06941,0.57229c0,0.13922 -0.02327,0.36442 -0.06941,0.6768c-0.04654,0.31198 -0.06941,0.48039 -0.06941,0.50287v2.08127c0,0.02367 0.04575,0.13883 0.13883,0.34707c0.04614,0.20785 0.04614,0.34668 0,0.41648c-0.32461,0.64802 -0.81167,0.97142 -1.45969,0.97142c-0.16249,0 -0.35931,-0.02286 -0.59121,-0.06941c-0.23231,-0.04614 -0.37073,-0.06941 -0.41727,-0.06941h-2.12032c-0.55611,0 -1.55831,-0.08085 -3.00694,-0.24294c-1.44825,-0.16131 -2.68274,-0.24255 -3.70188,-0.24255h-2.18974c-0.18577,0 -0.55611,0.02918 -1.11221,0.08677c-0.55611,0.05759 -0.98523,0.08677 -1.28655,0.08677c-0.62554,0 -1.13588,-0.10413 -1.52911,-0.31238c-0.11594,-0.06941 -0.17393,-0.24255 -0.17393,-0.52023c0,-0.2544 0.06902,-0.45119 0.20627,-0.58963c0.29779,-0.30053 0.71033,-0.47368 1.23764,-0.52023c0.34352,0 0.69848,0 1.06568,0c0.25163,0.04654 0.59515,0.02327 1.03097,-0.06941c0.13765,-0.06981 0.21812,-0.23113 0.24059,-0.48552c0.02286,-0.16171 0.02286,-0.40426 0,-0.72887c-0.02286,-0.36995 -0.03431,-0.5778 -0.03431,-0.62435c0,-2.40548 -0.01104,-3.78155 -0.03431,-4.12863c-0.409,-0.04575 -0.97773,-0.19601 -1.70503,-0.45119c-0.32065,-0.2544 -0.40073,-0.60108 -0.23823,-1.04083c0.13883,-0.36995 0.45119,-0.63578 0.93672,-0.79788c0.34668,-0.11516 0.69376,-0.21969 1.04083,-0.31198c0.06941,-0.2544 0.08045,-0.56677 0.0347,-0.93672c-0.04654,-0.32341 -0.08124,-0.63578 -0.10413,-0.93672c-0.04654,-0.99431 -0.1274,-2.52066 -0.24294,-4.57946c-0.09269,0 -0.40465,0.02918 -0.93672,0.08716c-0.53245,0.05759 -0.94855,0.08677 -1.2487,0.08677c-1.0641,0 -1.59617,-0.31829 -1.59617,-0.95525c0,-0.09033 0.01143,-0.19288 0.0347,-0.30685c-0.02327,-0.04536 -0.04575,-0.06823 -0.06941,-0.06823c0.50838,-0.40861 1.08697,-0.63617 1.73459,-0.68192c0.41648,0 0.83219,0 1.2487,0c2.891,-0.04614 7.57455,-0.71663 14.05029,-2.01225c0.06941,-0.02327 0.18499,-0.01143 0.34707,0.0347c0.16131,0.04654 0.2544,0.08124 0.27725,0.10413c0.18499,0.25479 0.31238,0.54349 0.38177,0.8673c-0.06981,1.01797 -0.03509,2.10416 0.10333,3.26054z" fill="#ffffff"/></g></g></g></svg>