<svg version="1.1" xmlns="http://www.w3.org/2000/svg" xmlns:xlink="http://www.w3.org/1999/xlink" width="76.68038" height="61.25001" viewBox="0,0,76.68038,61.25001"><g transform="translate(-209.375,-149.37499)"><g data-paper-data="{&quot;isPaintingLayer&quot;:true}" fill-rule="nonzero" stroke-width="4" stroke-linecap="butt" stroke-linejoin="miter" stroke-miterlimit="10" stroke-dasharray="" stroke-dashoffset="0" style="mix-blend-mode: normal"><path d="M211.375,196.0457c0,-12.26589 1.22678,-29.11285 1.22678,-35.16786c0,-4.06919 5.75369,-9.50285 11.17074,-9.50285c6.39037,0 22.10697,0 33.12322,0c6.7459,0 11.72926,6.69085 11.72926,11.95643c0,6.22582 0,21.60235 0,32.71428c0,7.17989 -4.35854,12.5793 -10.50247,12.5793c-11.97056,0 -30.71854,0 -37.2125,0c-4.39291,0 -9.53503,-5.3526 -9.53503,-12.5793z" fill="#3f7996" stroke="#484848"/><path d="M231.57565,194.11263v-12.09286h52.47973v12.09286z" fill="#5a8991" stroke="#484848"/><path d="M231.38212,177.01359v-11.4299h52.47973v11.4299z" fill="#5a8991" stroke="#484848"/><path d="M221.875,198.125v-36.25h36.25v36.25z" fill="#7cbcc7" stroke="#484848"/></g></g></svg>